<svg xmlns="http://www.w3.org/2000/svg" width="17.964" height="17.964" viewBox="0 0 17.964 17.964">
  <path id="Icon_metro-blogger" data-name="Icon metro-blogger" d="M19.373,8.665H18.366a1.238,1.238,0,0,1-1.2-1.123,5.637,5.637,0,0,0-5.81-5.614H8.412a5.823,5.823,0,0,0-5.842,5.8v6.365a5.82,5.82,0,0,0,5.842,5.8H14.7a5.813,5.813,0,0,0,5.835-5.8V9.982a1.3,1.3,0,0,0-1.161-1.317ZM8.184,6.419h3.368a1.123,1.123,0,0,1,0,2.246H8.184a1.123,1.123,0,0,1,0-2.246ZM14.921,15.4H8.184a1.123,1.123,0,0,1,0-2.246h6.737a1.123,1.123,0,1,1,0,2.246Z" transform="translate(-2.571 -1.928)" fill="#fff"/>
</svg>