<svg xmlns="http://www.w3.org/2000/svg" width="20.964" height="17.026" viewBox="0 0 20.964 17.026">
  <path id="Icon_awesome-twitter" data-name="Icon awesome-twitter" d="M18.809,7.624c.013.186.013.372.013.559A12.141,12.141,0,0,1,6.6,20.407,12.142,12.142,0,0,1,0,18.478a8.888,8.888,0,0,0,1.038.053A8.6,8.6,0,0,0,6.372,16.7a4.3,4.3,0,0,1-4.017-2.98,5.418,5.418,0,0,0,.811.066A4.544,4.544,0,0,0,4.3,13.637,4.3,4.3,0,0,1,.851,9.42V9.367a4.327,4.327,0,0,0,1.942.545,4.3,4.3,0,0,1-1.33-5.746,12.213,12.213,0,0,0,8.859,4.5,4.85,4.85,0,0,1-.106-.984,4.3,4.3,0,0,1,7.436-2.94A8.459,8.459,0,0,0,20.379,3.7,4.285,4.285,0,0,1,18.49,6.068,8.613,8.613,0,0,0,20.964,5.4a9.236,9.236,0,0,1-2.155,2.221Z" transform="translate(0 -3.381)" fill="#fff"/>
</svg>